<svg xmlns="http://www.w3.org/2000/svg" viewBox="0 0 172.13 65.45"><defs><style>.cls-1{fill:#5dc3dc;}</style></defs><g id="Camada_2" data-name="Camada 2"><g id="Camada_2-2" data-name="Camada 2"><path class="cls-1" d="M6.93,65.45a7.3,7.3,0,0,1-3.67-.82,5.07,5.07,0,0,1-2.12-2.21,7.08,7.08,0,0,1-.66-3.07A8.35,8.35,0,0,1,1.16,56a9.06,9.06,0,0,1,2-2.83,8.88,8.88,0,0,1,3-1.93A10.3,10.3,0,0,1,10,50.53a7.55,7.55,0,0,1,3.71.81,5,5,0,0,1,2.12,2.2,6.81,6.81,0,0,1,.69,3.09,8.35,8.35,0,0,1-.7,3.35,8.65,8.65,0,0,1-2,2.82,9.39,9.39,0,0,1-3,1.94A10.29,10.29,0,0,1,6.93,65.45Zm.62-3.17a4.3,4.3,0,0,0,1.79-.38,4.77,4.77,0,0,0,1.53-1.09,5.39,5.39,0,0,0,1.07-1.66,5.27,5.27,0,0,0,.4-2.07A4.2,4.2,0,0,0,12,55.31a2.62,2.62,0,0,0-1-1.19,3.06,3.06,0,0,0-1.65-.42,4.11,4.11,0,0,0-1.76.39,5.28,5.28,0,0,0-1.51,1.09A5,5,0,0,0,5,56.83a5.45,5.45,0,0,0-.39,2.07,4.45,4.45,0,0,0,.33,1.78,2.61,2.61,0,0,0,1,1.18A3,3,0,0,0,7.55,62.28Z" transform="translate(-0.48)"/><path class="cls-1" d="M26,65.31a8.06,8.06,0,0,1-3.34-.66,7.06,7.06,0,0,1-2.46-1.82,8,8,0,0,1-1.48-2.64,9.48,9.48,0,0,1-.51-3.08,10,10,0,0,1,.65-3.51,12.39,12.39,0,0,1,1.83-3.24,13.46,13.46,0,0,1,2.75-2.63A13.82,13.82,0,0,1,26.87,46a11.07,11.07,0,0,1,3.79-.66A7.68,7.68,0,0,1,34,46a7.34,7.34,0,0,1,2.44,1.85,7.72,7.72,0,0,1,1.48,2.66,9.63,9.63,0,0,1,.49,3.07,9.79,9.79,0,0,1-.65,3.49,12.49,12.49,0,0,1-1.81,3.22,13.64,13.64,0,0,1-2.73,2.63,13.07,13.07,0,0,1-3.39,1.78A11.41,11.41,0,0,1,26,65.31Zm.81-3.39a6.12,6.12,0,0,0,3-.73,8,8,0,0,0,2.35-1.93,9,9,0,0,0,1.54-2.62,8.09,8.09,0,0,0,.53-2.83,6.14,6.14,0,0,0-.51-2.5,4.37,4.37,0,0,0-1.47-1.88,4,4,0,0,0-2.42-.71,6.44,6.44,0,0,0-3,.72,7.44,7.44,0,0,0-2.35,1.92A9.86,9.86,0,0,0,22.94,54a7.93,7.93,0,0,0-.55,2.82,6.25,6.25,0,0,0,.51,2.53,4.49,4.49,0,0,0,1.47,1.87A4,4,0,0,0,26.83,61.92Z" transform="translate(-0.48)"/><path class="cls-1" d="M41.67,50.75h3.59l-.62,2.69a7.51,7.51,0,0,1,1.8-1.57,8.85,8.85,0,0,1,2.24-1,8.74,8.74,0,0,1,2.47-.36,4.09,4.09,0,0,1,2.11.44,2.46,2.46,0,0,1,1.07,1.19,4.21,4.21,0,0,1,.33,1.69A7.68,7.68,0,0,1,54.57,55a9.55,9.55,0,0,1-.24,1.14l-2,9h-4l1.84-8.06a3.92,3.92,0,0,0,.16-.77,5.31,5.31,0,0,0,.05-.68,1.89,1.89,0,0,0-.46-1.41,1.7,1.7,0,0,0-1.24-.45,3.62,3.62,0,0,0-1.54.38,6.3,6.3,0,0,0-1.59,1,5.72,5.72,0,0,0-1.24,1.54l-1.93,8.41h-4Z" transform="translate(-0.48)"/><path class="cls-1" d="M60.31,45.44h7.35a8.75,8.75,0,0,1,4.49,1,6.63,6.63,0,0,1,2.62,2.74,8.54,8.54,0,0,1,.86,3.87,12.17,12.17,0,0,1-.94,4.83,11.62,11.62,0,0,1-2.63,3.85,12,12,0,0,1-4,2.53,13.38,13.38,0,0,1-4.93.89H55.82Zm3.6,16.37a7.14,7.14,0,0,0,5.47-2.47,7.93,7.93,0,0,0,1.5-2.6,9,9,0,0,0,.53-3.07,6,6,0,0,0-.51-2.54,3.8,3.8,0,0,0-1.5-1.71,4.65,4.65,0,0,0-2.48-.62H63.61l-3,13Z" transform="translate(-0.48)"/><path class="cls-1" d="M82.65,65.45a7,7,0,0,1-3.39-.78,5.39,5.39,0,0,1-2.2-2.16,6.27,6.27,0,0,1-.78-3.16A7.84,7.84,0,0,1,77,56a8.9,8.9,0,0,1,2.08-2.82,10.09,10.09,0,0,1,3.12-1.92,10.44,10.44,0,0,1,3.87-.7A8.76,8.76,0,0,1,89,51,4.06,4.06,0,0,1,91,52.34a3.55,3.55,0,0,1,.69,2.21A3.8,3.8,0,0,1,89.4,58a14.68,14.68,0,0,1-6.72,1.19c-.6,0-1.24,0-1.94,0s-1.44-.08-2.26-.15L79,56.67l2,.11q.87.06,1.74.06a14.25,14.25,0,0,0,3-.25,3.6,3.6,0,0,0,1.63-.7,1.35,1.35,0,0,0,.47-1.09,1.17,1.17,0,0,0-.27-.88,1.81,1.81,0,0,0-.81-.52,3.82,3.82,0,0,0-1.24-.18,4.46,4.46,0,0,0-2.1.51,5.54,5.54,0,0,0-1.68,1.38,6.65,6.65,0,0,0-1.1,2,8,8,0,0,0-.41,2.35,4,4,0,0,0,.34,1.7,2.71,2.71,0,0,0,1,1.17,3.2,3.2,0,0,0,1.75.44,4.91,4.91,0,0,0,2.25-.54,4.59,4.59,0,0,0,1.68-1.46l3.15.88a7.94,7.94,0,0,1-2,2A11.1,11.1,0,0,1,85.68,65,9.79,9.79,0,0,1,82.65,65.45Z" transform="translate(-0.48)"/><path class="cls-1" d="M95.11,50.75h3.6l-.63,2.69a7.79,7.79,0,0,1,2.75-2.14,7.57,7.57,0,0,1,3.32-.77,4.63,4.63,0,0,1,2,.38A2.58,2.58,0,0,1,107.32,52a3.58,3.58,0,0,1,.4,1.58,9.88,9.88,0,0,1,1.81-1.65,7.65,7.65,0,0,1,2.07-1,7.15,7.15,0,0,1,2.21-.36,4.13,4.13,0,0,1,2.12.44A2.57,2.57,0,0,1,117,52.16a4.47,4.47,0,0,1,.32,1.72,7.87,7.87,0,0,1-.07,1c0,.38-.13.81-.22,1.29l-2.11,9h-4l1.87-8.06a6.89,6.89,0,0,0,.18-1.45,2,2,0,0,0-.43-1.4,1.52,1.52,0,0,0-1.17-.46,3.28,3.28,0,0,0-1.49.39,6,6,0,0,0-1.46,1,7,7,0,0,0-1.19,1.52l-1.9,8.41h-4l1.85-8.08c.06-.3.1-.56.13-.8a5.42,5.42,0,0,0,0-.66,2,2,0,0,0-.42-1.39,1.58,1.58,0,0,0-1.19-.44,3.79,3.79,0,0,0-2.22.83,6.27,6.27,0,0,0-1.85,2.13l-1.94,8.41h-4Z" transform="translate(-0.48)"/><path class="cls-1" d="M124.16,65.45a5.5,5.5,0,0,1-3-.78,5.23,5.23,0,0,1-1.9-2.13,6.68,6.68,0,0,1-.67-3,8.62,8.62,0,0,1,.7-3.45,9.72,9.72,0,0,1,1.89-2.88,8.93,8.93,0,0,1,2.72-2,7.37,7.37,0,0,1,3.23-.73,4.62,4.62,0,0,1,2.72.78,4.2,4.2,0,0,1,1.56,2l.6-2.55h4l-2.35,10c0,.09,0,.17,0,.25a2.12,2.12,0,0,0,0,.24c0,.38.25.57.74.59L133.59,65l-.94.14a4.71,4.71,0,0,1-.69.06,3.31,3.31,0,0,1-1.67-.4,1.23,1.23,0,0,1-.59-1.13,2.54,2.54,0,0,1,0-.26,2.33,2.33,0,0,1,.06-.33c0-.12.06-.25.1-.38a7.74,7.74,0,0,1-2.67,2.06A7.28,7.28,0,0,1,124.16,65.45Zm1.76-3.17a3.55,3.55,0,0,0,1.07-.17,5.49,5.49,0,0,0,1.11-.5,6.43,6.43,0,0,0,1-.77,5.4,5.4,0,0,0,.83-1l.78-3.41a3.24,3.24,0,0,0-.57-1.41,3.47,3.47,0,0,0-1.1-1,2.86,2.86,0,0,0-1.4-.36,3.91,3.91,0,0,0-1.84.45,5.57,5.57,0,0,0-1.55,1.2A5.87,5.87,0,0,0,123.2,57a4.76,4.76,0,0,0-.4,1.92,3.65,3.65,0,0,0,.38,1.69,2.94,2.94,0,0,0,1.09,1.2A3,3,0,0,0,125.92,62.28Z" transform="translate(-0.48)"/><path class="cls-1" d="M139.6,50.75h3.6l-.63,2.69a7.7,7.7,0,0,1,1.8-1.57,8.92,8.92,0,0,1,2.25-1,8.63,8.63,0,0,1,2.47-.36,4.12,4.12,0,0,1,2.11.44,2.57,2.57,0,0,1,1.07,1.19,4.21,4.21,0,0,1,.33,1.69,7.68,7.68,0,0,1-.09,1.17,9.55,9.55,0,0,1-.24,1.14l-2.05,9h-4l1.85-8.06a6.23,6.23,0,0,0,.16-.77,5.27,5.27,0,0,0,0-.68,1.89,1.89,0,0,0-.46-1.41,1.69,1.69,0,0,0-1.23-.45,3.66,3.66,0,0,0-1.55.38,6.68,6.68,0,0,0-1.59,1,5.68,5.68,0,0,0-1.23,1.54l-1.94,8.41h-4Z" transform="translate(-0.48)"/><path class="cls-1" d="M159.47,65.45a5.48,5.48,0,0,1-3-.78,5.18,5.18,0,0,1-1.91-2.13,6.74,6.74,0,0,1-.67-3,8.72,8.72,0,0,1,.7-3.42,9.72,9.72,0,0,1,1.89-2.88,8.93,8.93,0,0,1,2.72-2,7.37,7.37,0,0,1,3.23-.73,4.62,4.62,0,0,1,2.72.78,4.2,4.2,0,0,1,1.56,2l1.91-8.41h4l-3.63,16q0,.15-.06.27a1,1,0,0,0,0,.23c0,.39.25.6.75.62l-.75,3.17-.95.13a4.5,4.5,0,0,1-2.33-.34A1.31,1.31,0,0,1,165,63.8a1.69,1.69,0,0,1,0-.3c0-.11,0-.23.06-.37a4.47,4.47,0,0,1,.09-.45,7.83,7.83,0,0,1-2.67,2.06A7.21,7.21,0,0,1,159.47,65.45Zm1.75-3.17a3.5,3.5,0,0,0,1.07-.17,5.83,5.83,0,0,0,1.12-.5,6.29,6.29,0,0,0,1-.76,4.85,4.85,0,0,0,.83-1l.78-3.41a3.24,3.24,0,0,0-.57-1.41,3.37,3.37,0,0,0-1.1-1,2.83,2.83,0,0,0-1.4-.36,3.94,3.94,0,0,0-1.84.45,5.72,5.72,0,0,0-1.55,1.2A6.09,6.09,0,0,0,158.5,57a4.76,4.76,0,0,0-.4,1.92,3.76,3.76,0,0,0,.38,1.7,2.88,2.88,0,0,0,2.74,1.62Z" transform="translate(-0.48)"/><path class="cls-1" d="M61.38,20.42c.45,0,.47,0,.41.49s-.26.3-.47.3H57v-.06H52.69c-.23,0-.44,0-.42-.31s.11-.41.43-.41C55.6,20.44,58.49,20.42,61.38,20.42Z" transform="translate(-0.48)"/><path class="cls-1" d="M56,22.52l1.64,0a7,7,0,0,1,.92.06c.25,0,.31.26.3.48s-.2.15-.32.15c-.43,0-.85,0-1.28,0v0c-.48,0-1,0-1.45,0s-.35-.21-.27-.47S55.77,22.52,56,22.52Z" transform="translate(-0.48)"/><path class="cls-1" d="M60.21,23.25c-.21,0-.31-.06-.28-.27s-.07-.43.26-.43l2.17,0c.27,0,.29.16.29.36s-.06.36-.32.35-.72,0-1.08,0v0C60.9,23.25,60.56,23.23,60.21,23.25Z" transform="translate(-0.48)"/><path class="cls-1" d="M108.59,2.31a5.72,5.72,0,0,0,.57.24,5.43,5.43,0,0,0-1.82-1.48,9.38,9.38,0,0,0-2.73-1c-.25,0-.47,0-.42.3,0,0,0,0,0,0A2.82,2.82,0,0,0,102.37,0a10.24,10.24,0,0,0-6.92,3.15A9.18,9.18,0,0,0,93.93,5.6a9.65,9.65,0,0,1-.75,1.33,6.63,6.63,0,0,1-2.4,1.82,6.6,6.6,0,0,1-5,.31c-2-.52-4-1.21-6-1.67a23.25,23.25,0,0,0-8.63-.63c-1.23.19-2.47.22-3.71.33a14.87,14.87,0,0,0-5.93,1.65,3.45,3.45,0,0,0-1.57,3.62s0,.06.06.1a3,3,0,0,0,2.74,2.33,13.26,13.26,0,0,0,3.5-.09c1.17-.17,2.36-.26,3.54-.39a24.66,24.66,0,0,1,4.12-.16l.26,0-.86-.36c-.12-.06-.29-.12-.27-.26s.23-.11.34-.1a9.15,9.15,0,0,1,1.58.27,39.8,39.8,0,0,0,3.91.79,20.63,20.63,0,0,1,6.35,2.61c.28.17.52.41.79.61s.31.3.54.31a9.3,9.3,0,0,0,3.41,1.68c.28.06.21.18.09.32a.71.71,0,0,1-.47.17A5.64,5.64,0,0,1,87.79,20,19.26,19.26,0,0,1,83.92,18c-.51-.32-1-.61-1.58-.88a1.79,1.79,0,0,0-1.79,0c-1.37.73-2.77,1.41-4.15,2.12A19.74,19.74,0,0,1,71.93,21a6.88,6.88,0,0,1-4.16-.31,1.92,1.92,0,0,1-.64-.4s-.11-.1-.17,0a.19.19,0,0,0,0,.15,4.16,4.16,0,0,0,2,3.16,2.92,2.92,0,0,0,.77.34c.09,0,.25,0,.24.16a.25.25,0,0,1-.25.18l-.72,0c-.22,0-.44,0-.75,0a5.39,5.39,0,0,0,2.61,1.26c.57.11.58.17.29.68a1.3,1.3,0,0,0-.09.78,7,7,0,0,0,.86,2.74c.12.21.2.53.57.49,0,0,.1.09.13.14a9.22,9.22,0,0,0,2.7,2.43A12.21,12.21,0,0,0,82,35.07a6.44,6.44,0,0,0,1.52,0c.12,0,.31-.11.36,0s-.13.23-.24.31-.09,0-.13.11a21.83,21.83,0,0,0,4-.06c0,.14-.27.15-.19.32s.22.11.33.12c.73,0,1.46.07,2.2.16a19.8,19.8,0,0,1,5.06,1.39c1.13.45,2.13,1.12,3.23,1.61a22.49,22.49,0,0,0,2.89,1.38,10,10,0,0,0,5.33.3,4,4,0,0,0,2.45-1.83,2.7,2.7,0,0,0,0-3.27,10.36,10.36,0,0,0-2.65-2.19,68.37,68.37,0,0,0-5.84-3.61c-1.21-.63-2.51-1.07-3.76-1.59a24.25,24.25,0,0,0-5.4-1.46,22.21,22.21,0,0,0-6,0,9.05,9.05,0,0,0-3,.77.62.62,0,0,1-.23.07c-.11,0-.23.05-.3-.05s0-.23.1-.31a5.11,5.11,0,0,1,1.73-1.21,12.78,12.78,0,0,1,3.93-.69,20.09,20.09,0,0,1,5.36.47,1.4,1.4,0,0,0,1.13-.2c1.27-.73,2.6-1.34,3.81-2.15a19.92,19.92,0,0,0,2.36-1.74.26.26,0,0,0,.18-.12l0,0A18.77,18.77,0,0,0,102.93,19c.57-.61,1.12-1.22,1.67-1.84.12-.12.23-.26.4-.46a15.78,15.78,0,0,1-1.76.27,8,8,0,0,1-7.45-4c-.08-.13-.18-.26-.26-.39a7.58,7.58,0,0,1-.8-4.25,7.45,7.45,0,0,1,2-4.43A7.4,7.4,0,0,1,101,1.65a4.92,4.92,0,0,1,3.2.4l.32.16a1,1,0,0,0,1.15,0A3.14,3.14,0,0,1,108.59,2.31ZM104.25.4l0,0,0,0Z" transform="translate(-0.48)"/><path class="cls-1" d="M107.24,6.31c-.15-.59.49-1.19,1.12-1.25a2,2,0,0,1,2.06.93c.24.36.49.72.76,1.07a7.73,7.73,0,0,0-.73-2.27,4.55,4.55,0,0,0-2.31-1.66,2.44,2.44,0,0,0-2.2.05,1.41,1.41,0,0,1-1.39,0A5.21,5.21,0,0,0,100,3a7,7,0,0,0-4.12,4.64.47.47,0,0,0,0,.31,13.09,13.09,0,0,1,3.27-2.56,2.94,2.94,0,0,1,2.72-.21,1.73,1.73,0,0,1,.89,2.57,2.89,2.89,0,0,1-2.39,1.46,5.09,5.09,0,0,0-3.46,1.91,2.29,2.29,0,0,0-.39.74c-.1.18,0,.34.08.49a6.47,6.47,0,0,0,3.61,3.13,8.19,8.19,0,0,0,5.77-.07.91.91,0,0,0,.17-.09,7.74,7.74,0,0,0,3.08-2.13,7.52,7.52,0,0,0,1.39-2,.71.71,0,0,0,0-.81c-.21-.27-.89-1.24-1.67-2.12S107.54,7.49,107.24,6.31Zm-3.19,1.14a3.45,3.45,0,0,1,3-.12,1.52,1.52,0,0,1,1,1.31,1.58,1.58,0,0,1-1.18,1.45,3.24,3.24,0,0,1-1.31.12h-.64a2.07,2.07,0,0,1-1.32-.53A1.37,1.37,0,0,1,104.05,7.45Zm4.47,3.62c-.35-.13-.52,0-.67.28a5.51,5.51,0,0,1-1.71,1.94,3.12,3.12,0,0,1-2.44.58,4.19,4.19,0,0,1-3.19-2.76c-.15-.37-.24-.44-.52-.14-.07.08-.16.17-.28.11s-.12-.21-.1-.33a1.27,1.27,0,0,1,.52-.78.72.72,0,0,1,1.1.14.88.88,0,0,0,.36.24,8.92,8.92,0,0,0,5,.64,1.28,1.28,0,0,0,1.07-.72c.06-.14.19-.17.34-.17a1.08,1.08,0,0,1,.8.58C108.93,10.93,108.76,11.16,108.52,11.07Z" transform="translate(-0.48)"/><path class="cls-1" d="M122.81,6.78a2.1,2.1,0,0,0-.54.27,6.9,6.9,0,0,0-2.61,3.8c0,.15,0,.33-.14.48a2.87,2.87,0,0,1,.12-2.11A5.19,5.19,0,0,1,122,6.28c.41-.25.7-.21.93.09S123.06,6.69,122.81,6.78Z" transform="translate(-0.48)"/><path class="cls-1" d="M110.53,37a13.92,13.92,0,0,1,5.8,1.52,7.28,7.28,0,0,1,2,1.33.66.66,0,0,1-.52-.13,13.9,13.9,0,0,0-5.25-1.87,18.45,18.45,0,0,0-2-.23c-.31,0-.23-.22-.25-.39S110.35,37,110.53,37Z" transform="translate(-0.48)"/><path class="cls-1" d="M48.35,32c1.76-.6,3.56-1.05,5.35-1.54.11,0,.36-.18.35,0s.25.59-.16.75a8.52,8.52,0,0,1-1.33.29l-4.87.94A.91.91,0,0,1,48.35,32Z" transform="translate(-0.48)"/><path class="cls-1" d="M54.29,29.32c0,.16-.11.31-.33.35a29.3,29.3,0,0,0-3.69.93,14.49,14.49,0,0,1-2.77.65c2.18-1.23,4.62-1.76,7.06-2.57A1.66,1.66,0,0,0,54.29,29.32Z" transform="translate(-0.48)"/><path class="cls-1" d="M120.33,12.19a1.63,1.63,0,0,1,.09.19.34.34,0,0,0,.34.28c.21,0,.25-.17.31-.32l.09-.22a6.68,6.68,0,0,1,1.55-2.36c.29,1.64-.13,2.75-1.22,3.23a1.78,1.78,0,0,1-2.06-.26C119.9,12.79,119.9,12.79,120.33,12.19Z" transform="translate(-0.48)"/><path class="cls-1" d="M121,5.82a15.72,15.72,0,0,0-1.86,2.05,2.28,2.28,0,0,0-.43,1,4.28,4.28,0,0,1-.38,1.09.25.25,0,0,1-.27.18c-.16,0-.13-.14-.12-.25a5.31,5.31,0,0,1,1.62-3.61,2.25,2.25,0,0,1,1.3-.82c.12,0,.29-.05.35.09S121.12,5.74,121,5.82Z" transform="translate(-0.48)"/><path class="cls-1" d="M50.76,32.53c1.06-.15,2.1-.34,3.14-.58.4-.09.32.28.4.46s-.09.22-.24.26c-.9.21-1.83.23-2.74.35a15.5,15.5,0,0,1-3.51.16,1.69,1.69,0,0,1,.3-.11C49,32.92,49.86,32.65,50.76,32.53Z" transform="translate(-0.48)"/><path class="cls-1" d="M123.73,8A5.78,5.78,0,0,0,121,11a1.2,1.2,0,0,1-.46.56,3.87,3.87,0,0,1,.39-1.62,4.37,4.37,0,0,1,2.5-2.52c.2-.08.37-.08.46.16S124,7.93,123.73,8Z" transform="translate(-0.48)"/><path class="cls-1" d="M54.28,13.45a.77.77,0,0,1,.36-.12c1.27-.17,2.56-.14,3.83-.23.51,0,.82.11,1,.63A22.16,22.16,0,0,1,54.28,13.45Z" transform="translate(-0.48)"/><path class="cls-1" d="M58.62,11c-1,.11-2,.23-3,.39-.63.1-1.25.26-1.87.39l-.06-.09a.67.67,0,0,0,.15-.06,3.23,3.23,0,0,1,1.4-.56,22.34,22.34,0,0,1,3.44-.71c.11,0,.38-.15.35.15S59,11,58.62,11Z" transform="translate(-0.48)"/><path class="cls-1" d="M54.24,12.56a13.71,13.71,0,0,1,4.43-.81c.31,0,.25.34.29.52s-.19.19-.35.18c-.8,0-1.6,0-2.4.06s-1.38.14-2.08.14A.87.87,0,0,1,54.24,12.56Z" transform="translate(-0.48)"/><polygon class="cls-1" points="101.36 7.59 101.37 7.59 101.37 7.59 101.37 7.61 101.36 7.6 101.36 7.6 101.36 7.59"/><path class="cls-1" d="M120.06,22.44a19.34,19.34,0,0,0,2.63-4,16,16,0,0,0,1.55-4.23c.05-.29,1-3.32.23-5,0-.05,0-.1,0-.16-.27,0-.54-.09-.8.05s-.27.18-.19.46a3.6,3.6,0,0,1-2.25,4.4,2.74,2.74,0,0,1-2.93-1.25,2.77,2.77,0,0,1-.69-1.45c0-.17-.2-.22-.34-.22s-.1.18-.11.27a9.2,9.2,0,0,1-3.64,6.55A6.61,6.61,0,0,1,107.36,19a13.91,13.91,0,0,1-1.55-.62c-.46-.36-.44-.34-.78.08a37.5,37.5,0,0,1-3.51,3.73c-.38.35-.78.68-1.18,1s-.39.38,0,.66a11.28,11.28,0,0,0,2.44,1.26c.54.2,1,.57,1.54.73a12.39,12.39,0,0,0,4.56.57c.34,0,.44.1.36.41s-.68.35-.79.82c.6-.13,1.18-.1,1.74-.27a.23.23,0,0,0,.24,0h0l.09,0a11.4,11.4,0,0,0,3.26-1,14.07,14.07,0,0,0,4.62-3.19c.13-.15.26-.32.49-.31.09.34-.07.68,0,1.16Z" transform="translate(-0.48)"/><path class="cls-1" d="M100.85,6.59c0-.22.07-.47.37-.5s.47.27.48.59-.09.4-.36.39A.47.47,0,0,1,100.85,6.59Z" transform="translate(-0.48)"/><path class="cls-1" d="M109.07,7.05c-.24,0-.36-.14-.36-.41s0-.46.34-.48.55.38.52.57S109.28,7,109.07,7.05Z" transform="translate(-0.48)"/><path class="cls-1" d="M68.69,36.41,70.1,36a39.45,39.45,0,0,0,4.15-.93,1,1,0,0,0,.43-.2c.21-.1.53-.07.56-.36s-.31-.31-.5-.43a.84.84,0,0,0-.43-.19c0-.16-.18-.18-.28-.25a10.67,10.67,0,0,1-3.69-4.4,6.76,6.76,0,0,1-.41-1.72c-1.18.69-2.44.47-3.67.51h-.52a17.71,17.71,0,0,1-3.56-1,6.61,6.61,0,0,0-4-.39,3.48,3.48,0,0,0-2.25,1.6A5.17,5.17,0,0,0,55,30.86a.49.49,0,0,0,.09.42,2.09,2.09,0,0,0,1,1.9,11.15,11.15,0,0,0,2.67,1,27.37,27.37,0,0,0,4.72,1.09,6.57,6.57,0,0,0,1.71.12h1.12a.88.88,0,0,0,.23,0c.29-.12.28.05.25.25-.15.38-.53.58-.7,1l1.43-.52h0a15.49,15.49,0,0,0,1.9-.69c.06.25-.18.33-.22.5S68.83,36.11,68.69,36.41Z" transform="translate(-0.48)"/><path class="cls-1" d="M116.34,40.82a2.58,2.58,0,0,1-.68,0c-1.71-.13-3.41-.35-5.12-.38l-1.24,0c-.09,0-.27,0-.2-.14s.24-.51.52-.5c1.27,0,2.55.15,3.82.3,1,.13,2,.41,3,.63l.65.11,0,.08Z" transform="translate(-0.48)"/><path class="cls-1" d="M118.66,40.11a.13.13,0,0,1,.17,0C118.76,40.23,118.7,40.19,118.66,40.11Z" transform="translate(-0.48)"/><path class="cls-1" d="M117,40.35A22,22,0,0,0,109.89,39a1.5,1.5,0,0,0,.08-.27c0-.35.19-.42.55-.39a28,28,0,0,1,3.28.53A6.76,6.76,0,0,1,117,40.27h0l.12.06C117.08,40.41,117,40.38,117,40.35Z" transform="translate(-0.48)"/><path class="cls-1" d="M105.14,12.84a2.51,2.51,0,0,1-1,.2,2.73,2.73,0,0,1-2.18-1c-.07-.08-.17-.17-.13-.28s.2-.13.31-.12a2.32,2.32,0,0,1,1.4.4c.11.08.21.19.36.14.55-.21.9.17,1.3.42C105.31,12.65,105.33,12.78,105.14,12.84Z" transform="translate(-0.48)"/><path class="cls-1" d="M105.08,9c.06.07,0,.15-.11.17s-.3,0-.38-.25C104.79,8.85,105,8.8,105.08,9Z" transform="translate(-0.48)"/><path class="cls-1" d="M107.09,8.76c-.16.22-.19.4-.4.34s-.14-.14-.11-.19S106.86,8.89,107.09,8.76Z" transform="translate(-0.48)"/><path class="cls-1" d="M107.05,8.32c-.79-.3-1.6,0-2.39-.2,0,0,.08-.11.16-.15a2.38,2.38,0,0,1,2.17.1.23.23,0,0,1,.11.2c.06,0,.07.06.05.11Z" transform="translate(-0.48)"/></g></g></svg>