<svg xmlns="http://www.w3.org/2000/svg" viewBox="0 0 165.73 27.85"><defs><style>.cls-1{fill:#5dc3dc;}</style></defs><g id="Camada_2" data-name="Camada 2"><g id="Camada_2-2" data-name="Camada 2"><path class="cls-1" d="M53.21,25.33a5,5,0,0,1-2.49-.56,3.46,3.46,0,0,1-1.43-1.51,4.63,4.63,0,0,1-.46-2.08,5.72,5.72,0,0,1,.47-2.29A6.08,6.08,0,0,1,50.63,17a6.15,6.15,0,0,1,2-1.31,6.82,6.82,0,0,1,2.59-.47,5.06,5.06,0,0,1,2.52.55,3.5,3.5,0,0,1,1.44,1.49,4.69,4.69,0,0,1,.47,2.1,5.55,5.55,0,0,1-.48,2.28,5.87,5.87,0,0,1-1.33,1.91,6.23,6.23,0,0,1-2,1.32A7,7,0,0,1,53.21,25.33Zm.43-2.16a2.84,2.84,0,0,0,1.21-.26,3,3,0,0,0,1-.74,3.74,3.74,0,0,0,.73-1.12,3.69,3.69,0,0,0,.27-1.41,3,3,0,0,0-.23-1.21,1.86,1.86,0,0,0-.69-.8,2.07,2.07,0,0,0-1.12-.29,2.73,2.73,0,0,0-1.19.27,3.69,3.69,0,0,0-1,.74,3.56,3.56,0,0,0-.73,1.12,3.8,3.8,0,0,0-.26,1.41,3,3,0,0,0,.22,1.2,1.75,1.75,0,0,0,.68.81A2,2,0,0,0,53.64,23.17Z"/><path class="cls-1" d="M66.18,25.23a5.44,5.44,0,0,1-2.27-.45,4.74,4.74,0,0,1-1.67-1.24,5.53,5.53,0,0,1-1-1.79,6.4,6.4,0,0,1-.34-2.09,6.81,6.81,0,0,1,.44-2.38,8.4,8.4,0,0,1,1.24-2.2,9.34,9.34,0,0,1,1.87-1.79,9.67,9.67,0,0,1,2.32-1.21,7.67,7.67,0,0,1,2.57-.44,5.26,5.26,0,0,1,2.23.46,4.85,4.85,0,0,1,1.66,1.26,5.33,5.33,0,0,1,1,1.8,6.67,6.67,0,0,1,.33,2.09,6.84,6.84,0,0,1-.44,2.37,8.78,8.78,0,0,1-1.23,2.19A9.76,9.76,0,0,1,71,23.59a8.88,8.88,0,0,1-2.3,1.21A7.69,7.69,0,0,1,66.18,25.23Zm.55-2.3a4.24,4.24,0,0,0,2-.5,5.57,5.57,0,0,0,1.59-1.31,6.16,6.16,0,0,0,1-1.78,5.44,5.44,0,0,0,.36-1.92,4.2,4.2,0,0,0-.34-1.7,3,3,0,0,0-1-1.28A2.72,2.72,0,0,0,68.77,14a4.43,4.43,0,0,0-2,.49,5.09,5.09,0,0,0-1.6,1.31,6.46,6.46,0,0,0-1,1.78,5.31,5.31,0,0,0-.37,1.92,4.25,4.25,0,0,0,.34,1.71,3,3,0,0,0,1,1.28A2.75,2.75,0,0,0,66.73,22.93Z"/><path class="cls-1" d="M76.8,15.34h2.45l-.43,1.83a5,5,0,0,1,1.23-1.07,6.32,6.32,0,0,1,1.52-.67,6,6,0,0,1,1.68-.24,2.82,2.82,0,0,1,1.43.3,1.73,1.73,0,0,1,.73.81,2.81,2.81,0,0,1,.22,1.15,5.35,5.35,0,0,1-.06.79,6.33,6.33,0,0,1-.16.78L84,25.14h-2.7l1.25-5.47a4.06,4.06,0,0,0,.11-.52,3.83,3.83,0,0,0,0-.47,1.31,1.31,0,0,0-.31-1,1.17,1.17,0,0,0-.84-.3,2.45,2.45,0,0,0-1,.26,4.24,4.24,0,0,0-1.08.7,4,4,0,0,0-.84,1.05l-1.31,5.71H74.54Z"/><path class="cls-1" d="M89.47,11.74h5a6.07,6.07,0,0,1,3.05.69,4.52,4.52,0,0,1,1.77,1.86,5.79,5.79,0,0,1,.59,2.64,8.19,8.19,0,0,1-.64,3.27,8,8,0,0,1-1.78,2.62,8.12,8.12,0,0,1-2.69,1.71,8.91,8.91,0,0,1-3.35.61h-5Zm2.44,11.11A4.82,4.82,0,0,0,94,22.4a4.91,4.91,0,0,0,1.62-1.23,5.6,5.6,0,0,0,1-1.76A6.32,6.32,0,0,0,97,17.32a4.11,4.11,0,0,0-.34-1.73,2.67,2.67,0,0,0-1-1.16A3.25,3.25,0,0,0,94,14H91.71l-2,8.83Z"/><path class="cls-1" d="M104.64,25.33a4.7,4.7,0,0,1-2.31-.54,3.74,3.74,0,0,1-1.49-1.46,4.31,4.31,0,0,1-.53-2.15,5.29,5.29,0,0,1,.51-2.29A6,6,0,0,1,102.23,17a6.73,6.73,0,0,1,2.12-1.3,7.11,7.11,0,0,1,2.63-.48,5.78,5.78,0,0,1,2,.31,2.74,2.74,0,0,1,1.32.92,2.43,2.43,0,0,1,.46,1.5,2.57,2.57,0,0,1-1.53,2.35,10,10,0,0,1-4.56.81l-1.32,0c-.47,0-1-.05-1.53-.1l.34-1.59,1.34.08c.4,0,.79,0,1.19,0a10.32,10.32,0,0,0,2.07-.16,2.4,2.4,0,0,0,1.1-.48,1,1,0,0,0,.32-.74.83.83,0,0,0-.18-.6,1.31,1.31,0,0,0-.56-.35,2.57,2.57,0,0,0-.84-.12,3,3,0,0,0-1.42.34,3.55,3.55,0,0,0-1.14.94,4.68,4.68,0,0,0-.75,1.35,5.32,5.32,0,0,0-.28,1.6,2.78,2.78,0,0,0,.23,1.15,1.93,1.93,0,0,0,.7.8,2.17,2.17,0,0,0,1.19.29,3.38,3.38,0,0,0,1.53-.36,3.23,3.23,0,0,0,1.14-1l2.14.6a5.35,5.35,0,0,1-1.38,1.34,7.11,7.11,0,0,1-1.85.92A6.67,6.67,0,0,1,104.64,25.33Z"/><path class="cls-1" d="M113.1,15.34h2.44l-.42,1.83A5.36,5.36,0,0,1,117,15.71a5.14,5.14,0,0,1,2.25-.52,3.16,3.16,0,0,1,1.37.26,1.77,1.77,0,0,1,.78.72,2.26,2.26,0,0,1,.27,1.07,7.09,7.09,0,0,1,1.23-1.12,5.13,5.13,0,0,1,1.41-.69,4.9,4.9,0,0,1,1.5-.24,2.86,2.86,0,0,1,1.44.3,1.76,1.76,0,0,1,.72.81,2.87,2.87,0,0,1,.22,1.17,4.4,4.4,0,0,1-.05.67c0,.26-.08.55-.15.88l-1.43,6.12h-2.71l1.27-5.47a4.21,4.21,0,0,0,.13-1,1.34,1.34,0,0,0-.3-.95,1,1,0,0,0-.79-.31,2.3,2.3,0,0,0-1,.26,4,4,0,0,0-1,.71,4.67,4.67,0,0,0-.81,1L120,25.14h-2.68l1.25-5.49q.06-.3.09-.54a3.64,3.64,0,0,0,0-.45,1.32,1.32,0,0,0-.28-.94,1.06,1.06,0,0,0-.81-.3,2.55,2.55,0,0,0-1.5.56,4.35,4.35,0,0,0-1.27,1.45l-1.31,5.71h-2.72Z"/><path class="cls-1" d="M132.83,25.33a3.66,3.66,0,0,1-2-.54,3.46,3.46,0,0,1-1.29-1.44,4.38,4.38,0,0,1-.46-2,5.83,5.83,0,0,1,.48-2.34,6.33,6.33,0,0,1,1.28-2,6.12,6.12,0,0,1,1.85-1.35,5,5,0,0,1,2.19-.49,3.18,3.18,0,0,1,1.85.53,2.87,2.87,0,0,1,1.06,1.36l.4-1.74h2.71l-1.6,6.78,0,.17c0,.06,0,.11,0,.16,0,.26.17.39.51.4L139.23,25l-.63.09c-.19,0-.34,0-.48,0a2.21,2.21,0,0,1-1.13-.27.85.85,0,0,1-.4-.77,1,1,0,0,1,0-.17,1,1,0,0,1,0-.23c0-.08,0-.17.07-.26a5.15,5.15,0,0,1-1.82,1.4A5,5,0,0,1,132.83,25.33ZM134,23.17a2.47,2.47,0,0,0,.73-.12,3.63,3.63,0,0,0,.76-.34,3.78,3.78,0,0,0,.69-.52,3.85,3.85,0,0,0,.57-.65l.52-2.32a2.23,2.23,0,0,0-.38-1,2.3,2.3,0,0,0-.75-.67,2,2,0,0,0-.95-.25,2.6,2.6,0,0,0-1.25.31,3.7,3.7,0,0,0-1.05.81,4.19,4.19,0,0,0-.74,1.15,3.34,3.34,0,0,0-.27,1.31,2.52,2.52,0,0,0,.26,1.14,2,2,0,0,0,.74.82A2.06,2.06,0,0,0,134,23.17Z"/><path class="cls-1" d="M143.31,15.34h2.44l-.42,1.83a5.19,5.19,0,0,1,1.22-1.07,6.57,6.57,0,0,1,1.53-.67,6,6,0,0,1,1.67-.24,2.86,2.86,0,0,1,1.44.3,1.71,1.71,0,0,1,.72.81,2.81,2.81,0,0,1,.23,1.15,5.35,5.35,0,0,1-.06.79,6.33,6.33,0,0,1-.17.78l-1.39,6.12h-2.7l1.25-5.47a4.06,4.06,0,0,0,.11-.52,3.83,3.83,0,0,0,0-.47,1.35,1.35,0,0,0-.31-1,1.17,1.17,0,0,0-.84-.3,2.39,2.39,0,0,0-1.05.26,4.24,4.24,0,0,0-1.08.7,3.67,3.67,0,0,0-.84,1.05l-1.31,5.71h-2.73Z"/><path class="cls-1" d="M156.8,25.33a3.68,3.68,0,0,1-2-.54,3.46,3.46,0,0,1-1.29-1.44,4.56,4.56,0,0,1-.45-2A5.76,5.76,0,0,1,153.5,19a6.52,6.52,0,0,1,1.28-2,6.25,6.25,0,0,1,1.85-1.35,5,5,0,0,1,2.19-.49,3.18,3.18,0,0,1,1.85.53,2.87,2.87,0,0,1,1.06,1.36L163,11.36h2.71l-2.46,10.87c0,.06,0,.12-.05.18a1,1,0,0,0,0,.16q0,.39.51.42l-.51,2.15-.64.09A3.1,3.1,0,0,1,161,25a.91.91,0,0,1-.41-.8,1.5,1.5,0,0,1,0-.2c0-.07,0-.16,0-.25a1.88,1.88,0,0,1,.06-.31,5.11,5.11,0,0,1-1.81,1.4A4.9,4.9,0,0,1,156.8,25.33ZM158,23.17a2.47,2.47,0,0,0,.73-.12,3.92,3.92,0,0,0,1.45-.85,3.56,3.56,0,0,0,.57-.66l.53-2.32a2.38,2.38,0,0,0-.39-1,2.3,2.3,0,0,0-.75-.67,1.94,1.94,0,0,0-.94-.25,2.61,2.61,0,0,0-1.26.31,3.7,3.7,0,0,0-1.05.81,3.94,3.94,0,0,0-.73,1.15,3.18,3.18,0,0,0-.28,1.31,2.41,2.41,0,0,0,.27,1.15,2,2,0,0,0,.72.81A2,2,0,0,0,158,23.17Z"/><path class="cls-1" d="M9.42,13.87c.31,0,.32,0,.28.33s-.17.2-.31.2H6.47v0H3.52c-.15,0-.3,0-.28-.21s.07-.28.29-.28C5.5,13.88,7.46,13.87,9.42,13.87Z"/><path class="cls-1" d="M5.74,15.3H6.86a3.18,3.18,0,0,1,.62,0c.17,0,.21.17.21.33s-.14.1-.22.1H5.62c-.23,0-.25-.14-.19-.32S5.62,15.3,5.74,15.3Z"/><path class="cls-1" d="M8.63,15.79c-.14,0-.21,0-.19-.18s0-.3.18-.29h1.47c.18,0,.2.12.2.25s0,.24-.22.24H9.34v0Z"/><path class="cls-1" d="M41.49,1.57c.12.05.25.12.38.16a3.72,3.72,0,0,0-1.23-1A6.19,6.19,0,0,0,38.78.06c-.17,0-.32,0-.28.21h0A1.86,1.86,0,0,0,37.26,0a7,7,0,0,0-4.7,2.13,6.32,6.32,0,0,0-1,1.66,6.13,6.13,0,0,1-.51.9,4.51,4.51,0,0,1-1.63,1.24A4.47,4.47,0,0,1,26,6.15C24.6,5.8,23.27,5.33,21.89,5A15.66,15.66,0,0,0,16,4.59c-.84.13-1.68.15-2.52.23a9.89,9.89,0,0,0-4,1.12A2.33,2.33,0,0,0,8.42,8.39s0,0,0,.07A2,2,0,0,0,10.32,10a9,9,0,0,0,2.37,0c.8-.12,1.61-.19,2.41-.27a15.4,15.4,0,0,1,2.8-.11l.18,0-.59-.24c-.08,0-.2-.08-.18-.18s.15-.07.23-.06a5.32,5.32,0,0,1,1.07.18,24.53,24.53,0,0,0,2.66.53,14.14,14.14,0,0,1,4.31,1.78c.19.12.36.28.54.41s.21.21.36.21a6.47,6.47,0,0,0,2.32,1.15c.19,0,.14.12.06.21a.45.45,0,0,1-.32.12,3.9,3.9,0,0,1-1.18-.09,13.09,13.09,0,0,1-2.63-1.42c-.35-.22-.71-.41-1.07-.6a1.21,1.21,0,0,0-1.22,0c-.93.49-1.88,1-2.81,1.43a13.43,13.43,0,0,1-3,1.19A4.68,4.68,0,0,1,13.77,14a1.3,1.3,0,0,1-.44-.27s-.07-.08-.12,0a.13.13,0,0,0,0,.11A2.85,2.85,0,0,0,14.55,16a2.08,2.08,0,0,0,.53.23c.06,0,.17,0,.15.11s-.09.11-.16.12-.33,0-.49,0h-.51a3.6,3.6,0,0,0,1.77.85c.39.08.39.12.2.47a.86.86,0,0,0-.06.53,4.75,4.75,0,0,0,.58,1.86c.08.14.14.36.39.33,0,0,.06.06.09.1a6.24,6.24,0,0,0,1.83,1.64,8.13,8.13,0,0,0,4.53,1.58,3.94,3.94,0,0,0,1,0c.08,0,.2-.07.24,0s-.09.15-.17.21a.17.17,0,0,0-.08.07,15.11,15.11,0,0,0,2.69,0c0,.1-.19.1-.13.22s.15.07.22.08c.5,0,1,.05,1.49.11a12.83,12.83,0,0,1,3.44.95c.77.3,1.45.76,2.19,1.09a15.34,15.34,0,0,0,2,.93,6.75,6.75,0,0,0,3.62.21,2.75,2.75,0,0,0,1.66-1.25,1.83,1.83,0,0,0,0-2.22,7.37,7.37,0,0,0-1.8-1.49c-1.3-.84-2.59-1.72-4-2.44-.82-.43-1.7-.73-2.56-1.09a16.66,16.66,0,0,0-3.66-1,14.82,14.82,0,0,0-4.1,0,5.91,5.91,0,0,0-2,.52l-.15.05c-.08,0-.16,0-.21,0s0-.16.07-.22a3.59,3.59,0,0,1,1.17-.82A8.71,8.71,0,0,1,27,17.27a13.45,13.45,0,0,1,3.64.31.94.94,0,0,0,.77-.13c.86-.5,1.77-.91,2.59-1.46a14.11,14.11,0,0,0,1.6-1.19.14.14,0,0,0,.12-.08h0a11.93,11.93,0,0,0,1.9-1.79c.39-.41.76-.83,1.14-1.24l.27-.32a9.45,9.45,0,0,1-1.2.18,5.45,5.45,0,0,1-5.06-2.7c0-.09-.12-.18-.18-.27a5.17,5.17,0,0,1,.84-5.9,5,5,0,0,1,2.9-1.55,3.32,3.32,0,0,1,2.17.27l.22.11a.69.69,0,0,0,.78,0A2.14,2.14,0,0,1,41.49,1.57Zm-3-1.3,0,0,0,0Z"/><path class="cls-1" d="M40.57,4.28c-.1-.4.33-.8.76-.84a1.36,1.36,0,0,1,1.4.63c.16.25.33.49.51.73a5.1,5.1,0,0,0-.49-1.55,3.19,3.19,0,0,0-1.57-1.13,1.65,1.65,0,0,0-1.5,0,.93.93,0,0,1-.94,0A3.56,3.56,0,0,0,35.64,2a4.76,4.76,0,0,0-2.8,3.15.3.3,0,0,0,0,.21,9,9,0,0,1,2.22-1.73,2,2,0,0,1,1.85-.14,1.16,1.16,0,0,1,.6,1.74,1.93,1.93,0,0,1-1.62,1,3.45,3.45,0,0,0-2.35,1.3,1.59,1.59,0,0,0-.26.5c-.07.12,0,.23,0,.33a4.42,4.42,0,0,0,2.45,2.13,5.57,5.57,0,0,0,3.92-.05l.12-.06A5.41,5.41,0,0,0,41.9,8.93a5.67,5.67,0,0,0,.94-1.39.46.46,0,0,0,0-.55c-.15-.19-.61-.84-1.13-1.44S40.77,5.09,40.57,4.28Zm-2.17.78a2.32,2.32,0,0,1,2-.08,1,1,0,0,1,.7.89,1.07,1.07,0,0,1-.8,1,2.24,2.24,0,0,1-.89.09H39a1.36,1.36,0,0,1-.9-.36A.93.93,0,0,1,38.4,5.06Zm3,2.46c-.24-.09-.35,0-.46.19A3.77,3.77,0,0,1,39.82,9a2.16,2.16,0,0,1-1.66.39A2.85,2.85,0,0,1,36,7.55c-.11-.25-.17-.3-.36-.1,0,0-.1.11-.18.07a.18.18,0,0,1-.07-.22.87.87,0,0,1,.35-.53.5.5,0,0,1,.75.09.51.51,0,0,0,.24.17,6.12,6.12,0,0,0,3.43.44A.91.91,0,0,0,40.89,7c0-.1.13-.12.23-.12a.72.72,0,0,1,.54.4C41.72,7.42,41.6,7.58,41.44,7.52Z"/><path class="cls-1" d="M51.14,4.61a1.11,1.11,0,0,0-.36.18A4.69,4.69,0,0,0,49,7.37c0,.1,0,.22-.09.32A1.94,1.94,0,0,1,49,6.26a3.55,3.55,0,0,1,1.59-2c.28-.16.47-.14.63.06S51.31,4.54,51.14,4.61Z"/><path class="cls-1" d="M42.8,25.14a9.6,9.6,0,0,1,3.94,1,5,5,0,0,1,1.34.91.49.49,0,0,1-.36-.09,9.39,9.39,0,0,0-3.56-1.27,12,12,0,0,0-1.34-.16c-.21,0-.16-.15-.17-.27S42.68,25.13,42.8,25.14Z"/><path class="cls-1" d="M.58,21.7C1.77,21.29,3,21,4.21,20.65c.07,0,.24-.12.23,0s.18.4-.1.51a5.54,5.54,0,0,1-.9.19L.13,22C.23,21.79.42,21.76.58,21.7Z"/><path class="cls-1" d="M4.61,19.91a.29.29,0,0,1-.23.24,19.88,19.88,0,0,0-2.5.63A10.07,10.07,0,0,1,0,21.22a26.75,26.75,0,0,1,4.79-1.75A1.16,1.16,0,0,0,4.61,19.91Z"/><path class="cls-1" d="M49.46,8.28l.06.12c0,.12.1.2.23.2s.17-.12.21-.22L50,8.23a4.48,4.48,0,0,1,1.06-1.6c.19,1.11-.1,1.86-.84,2.19a1.2,1.2,0,0,1-1.4-.18C49.17,8.68,49.17,8.68,49.46,8.28Z"/><path class="cls-1" d="M49.93,4a11.14,11.14,0,0,0-1.27,1.39,1.61,1.61,0,0,0-.29.67,3.23,3.23,0,0,1-.25.74c0,.09-.1.13-.19.12s-.09-.09-.08-.17A3.62,3.62,0,0,1,49,4.25a1.58,1.58,0,0,1,.88-.56c.08,0,.2,0,.24.07S50,3.9,49.93,4Z"/><path class="cls-1" d="M2.21,22.09q1.08-.15,2.13-.39c.27-.06.22.19.28.31s-.07.15-.17.17a14.56,14.56,0,0,1-1.86.24,10.31,10.31,0,0,1-2.38.11,1.19,1.19,0,0,1,.2-.07C1,22.35,1.6,22.17,2.21,22.09Z"/><path class="cls-1" d="M51.77,5.46a4,4,0,0,0-1.87,2,.76.76,0,0,1-.3.38,2.48,2.48,0,0,1,.26-1.1A3,3,0,0,1,51.56,5c.13,0,.25,0,.31.11S52,5.38,51.77,5.46Z"/><path class="cls-1" d="M4.6,9.14a.54.54,0,0,1,.25-.09c.86-.11,1.73-.09,2.6-.15a.53.53,0,0,1,.65.43A15.5,15.5,0,0,1,4.6,9.14Z"/><path class="cls-1" d="M7.55,7.48c-.69.08-1.39.16-2.07.27-.43.06-.85.18-1.27.27l0-.06.1,0a2.19,2.19,0,0,1,1-.38,15.41,15.41,0,0,1,2.34-.48c.07,0,.26-.1.23.1S7.78,7.46,7.55,7.48Z"/><path class="cls-1" d="M4.58,8.53a9.31,9.31,0,0,1,3-.55c.21,0,.17.23.2.35s-.13.13-.23.13c-.55,0-1.09,0-1.64,0S5,8.59,4.5,8.59A.24.24,0,0,1,4.58,8.53Z"/><polygon class="cls-1" points="36.9 5.16 36.9 5.15 36.9 5.16 36.9 5.17 36.9 5.16 36.9 5.16 36.9 5.16"/><path class="cls-1" d="M49.27,15.24a13.12,13.12,0,0,0,1.79-2.69,10.93,10.93,0,0,0,1-2.88c0-.19.65-2.25.16-3.39,0,0,0-.08,0-.11-.18,0-.37-.06-.54,0s-.19.12-.14.31a2.44,2.44,0,0,1-1.52,3,1.84,1.84,0,0,1-2-.85,1.88,1.88,0,0,1-.47-1c0-.12-.13-.15-.23-.15s-.07.12-.08.18a6.24,6.24,0,0,1-2.47,4.45,4.5,4.5,0,0,1-4.18.72c-.36-.11-.7-.28-1-.42s-.3-.23-.53.05A24.94,24.94,0,0,1,36.68,15c-.25.23-.53.45-.8.68s-.26.26,0,.45a7.61,7.61,0,0,0,1.65.86c.37.13.67.38,1,.49a8.54,8.54,0,0,0,3.09.39c.23,0,.3.07.25.28s-.47.23-.54.55c.41-.09.8-.07,1.18-.18a.18.18,0,0,0,.16,0h0l.06,0A7.83,7.83,0,0,0,45,17.83a9.56,9.56,0,0,0,3.14-2.17c.09-.09.17-.21.33-.21.06.24,0,.47,0,.8Z"/><path class="cls-1" d="M36.23,4.47c0-.14.05-.31.25-.33s.32.18.33.4-.07.27-.25.26A.32.32,0,0,1,36.23,4.47Z"/><path class="cls-1" d="M41.81,4.79c-.16,0-.25-.09-.24-.28s0-.31.23-.33.37.26.35.39S42,4.78,41.81,4.79Z"/><path class="cls-1" d="M14.39,24.73l1-.25a28,28,0,0,0,2.82-.64.64.64,0,0,0,.29-.13c.14-.07.36-.05.38-.25s-.22-.21-.35-.29a.56.56,0,0,0-.28-.13c0-.1-.13-.12-.19-.17a7.15,7.15,0,0,1-2.51-3,4.69,4.69,0,0,1-.28-1.16,4.76,4.76,0,0,1-2.49.34h-.35A12.09,12.09,0,0,1,10,18.36a4.49,4.49,0,0,0-2.71-.26,2.38,2.38,0,0,0-1.53,1.09A3.5,3.5,0,0,0,5.12,21a.31.31,0,0,0,.06.28,1.42,1.42,0,0,0,.7,1.29,7.22,7.22,0,0,0,1.82.67,18.59,18.59,0,0,0,3.2.75,5,5,0,0,0,1.16.08h.76A.43.43,0,0,0,13,24c.19-.08.19,0,.17.17s-.36.4-.48.67l1-.35h0A10,10,0,0,0,14.93,24c0,.17-.12.22-.15.34S14.48,24.52,14.39,24.73Z"/><path class="cls-1" d="M46.74,27.72a1.36,1.36,0,0,1-.45,0c-1.16-.08-2.32-.23-3.48-.25l-.85,0c-.06,0-.17,0-.13-.1S42,27,42.18,27c.87,0,1.73.1,2.6.2.68.09,1.35.28,2,.43l.44.07v.06Z"/><path class="cls-1" d="M48.32,27.24a.09.09,0,0,1,.12,0C48.39,27.32,48.35,27.3,48.32,27.24Z"/><path class="cls-1" d="M47.16,27.4a15,15,0,0,0-4.79-.93,1,1,0,0,0,.05-.18c0-.24.13-.29.38-.26a18.31,18.31,0,0,1,2.22.35,4.54,4.54,0,0,1,2.18,1h0l.09,0C47.25,27.44,47.2,27.42,47.16,27.4Z"/><path class="cls-1" d="M39.14,8.72a1.56,1.56,0,0,1-.7.13A1.85,1.85,0,0,1,37,8.15c0-.05-.12-.11-.09-.19a.18.18,0,0,1,.21-.08,1.65,1.65,0,0,1,1,.27c.07,0,.14.13.24.09.37-.14.61.12.88.29C39.26,8.59,39.27,8.68,39.14,8.72Z"/><path class="cls-1" d="M39.1,6.08s0,.1-.08.12-.2,0-.25-.18C38.91,6,39,6,39.1,6.08Z"/><path class="cls-1" d="M40.46,6c-.1.15-.12.27-.27.23s-.09-.1-.07-.13S40.31,6,40.46,6Z"/><path class="cls-1" d="M40.44,5.65c-.53-.2-1.09,0-1.62-.14,0,0,0-.07.1-.1a1.64,1.64,0,0,1,1.48.07.14.14,0,0,1,.07.14c.05,0,.05,0,0,.07Z"/></g></g></svg>